<?xml version="1.0" encoding="UTF-8"?>
<svg version="1.1" viewBox="0 0 32 32" xmlns="http://www.w3.org/2000/svg">
<title>icon 147 tags</title>
<desc>Created with Sketch.</desc>
<g fill="none" fill-rule="evenodd">
<g fill="#000">
<path d="m6.2654 5h-1.2658c-1.1044 0-1.9996 0.88743-1.9996 1.9996v8.0004l13.381 13.381c0.78374 0.78374 2.0522 0.78595 2.8306 0.0075388l0.65112-0.65112c0.75723 0.40109 1.7154 0.28464 2.3489-0.34888l7.1769-7.1769c0.77958-0.77958 0.77561-2.0475-0.0075388-2.8306l-13.381-13.381h-8.0004c-0.74165 0-1.389 0.40024-1.7342 1zm-0.2654 1h-0.99156c-0.55695 0-1.0084 0.457-1.0084 1.0084v7.4916l13.1 13.171c0.38853 0.39064 1.0185 0.39016 1.4044 0.001581l0.58224-0.58621-13.087-13.087v-8zm9.5-1h-7.4916c-0.55695 0-1.0084 0.457-1.0084 1.0084v7.4916l13.1 13.171c0.38853 0.39064 1.0185 0.39016 1.4044 0.001581l7.1636-7.2125c0.38712-0.38977 0.38522-1.0189-0.0058745-1.4067l-13.162-13.054zm-4 7c1.3807 0 2.5-1.1193 2.5-2.5 0-1.3807-1.1193-2.5-2.5-2.5s-2.5 1.1193-2.5 2.5c0 1.3807 1.1193 2.5 2.5 2.5zm0-1c0.82843 0 1.5-0.67157 1.5-1.5 0-0.82843-0.67157-1.5-1.5-1.5s-1.5 0.67157-1.5 1.5c0 0.82843 0.67157 1.5 1.5 1.5z"/>
</g>
</g>
</svg>
